<?xml version="1.0" encoding="utf-8"?><svg xmlns="http://www.w3.org/2000/svg" xmlns:xlink="http://www.w3.org/1999/xlink"><symbol viewBox="0 0 18 18" id="buy" xmlns="http://www.w3.org/2000/svg">
    <rect width="18" height="18"/>
    <path d="M4 4.49996V2.69995C4.00001 2.17874 4.16765 1.66867 4.48266 1.23132C4.79768 0.793962 5.24662 0.448017 5.77529 0.235238C6.30395 0.0224602 6.88975 -0.0480548 7.46196 0.032205C8.03418 0.112465 8.56835 0.340069 9 0.687543C9.43165 0.340069 9.96582 0.112465 10.538 0.032205C11.1103 -0.0480548 11.696 0.0224602 12.2247 0.235238C12.7534 0.448017 13.2023 0.793962 13.5173 1.23132C13.8324 1.66867 14 2.17874 14 2.69995V4.49996H15.5C15.8978 4.49996 16.2794 4.64219 16.5607 4.89536C16.842 5.14854 17 5.49192 17 5.84996V14.8545C17 15.6887 16.6318 16.4888 15.9763 17.0787C15.3209 17.6686 14.4319 18 13.505 18H5C3.93913 18 2.92172 17.6207 2.17157 16.9456C1.42143 16.2704 1 15.3548 1 14.4V5.84996C1 5.49192 1.15804 5.14854 1.43934 4.89536C1.72064 4.64219 2.10218 4.49996 2.5 4.49996H4ZM10.635 16.65C10.2271 16.1233 10.0089 15.4965 10.01 14.8545V5.84996H2.5V14.4C2.5 14.6955 2.56466 14.988 2.6903 15.261C2.81594 15.534 3.00009 15.7821 3.23223 15.991C3.46438 16.1999 3.73998 16.3656 4.04329 16.4787C4.34661 16.5918 4.6717 16.65 5 16.65H10.635ZM8.5 4.49996V2.69995C8.5 2.34191 8.34196 1.99853 8.06066 1.74535C7.77936 1.49218 7.39782 1.34994 7 1.34994C6.60218 1.34994 6.22064 1.49218 5.93934 1.74535C5.65804 1.99853 5.5 2.34191 5.5 2.69995V4.49996H8.5ZM10 4.49996H12.5V2.69995C12.5 2.42206 12.4048 2.15093 12.2272 1.92357C12.0497 1.69622 11.7985 1.52371 11.508 1.42959C11.2175 1.33548 10.9018 1.32435 10.604 1.39772C10.3062 1.47109 10.0408 1.62539 9.844 1.83955C9.945 2.10955 10 2.39935 10 2.69995V4.49996ZM11.51 14.8545C11.51 15.3307 11.7202 15.7874 12.0943 16.1241C12.4685 16.4608 12.9759 16.65 13.505 16.65C14.0341 16.65 14.5415 16.4608 14.9157 16.1241C15.2898 15.7874 15.5 15.3307 15.5 14.8545V5.84996H11.51V14.8545Z"/>
</symbol><symbol viewBox="0 0 19 18" id="favor" xmlns="http://www.w3.org/2000/svg">
    <path d="M12.9873 0.000335199C12.2626 0.00841138 11.5192 0.161729 10.7919 0.476213L10.7589 0.49139L10.7259 0.509817C10.2649 0.76416 9.84468 1.08233 9.47114 1.45939C7.46079 -0.424241 4.26023 -0.560951 2.07059 1.57755L2.04857 1.59922L2.02856 1.62199C0.107714 3.79551 0.152699 7.14283 1.3041 9.78769L1.3141 9.8083L1.32411 9.82998C2.68017 12.5503 5.21235 14.8618 7.51992 16.7621L7.52592 16.7675L7.53092 16.7719C7.67937 16.8898 7.93464 17.1335 8.22935 17.3735C8.52404 17.6134 8.85693 17.8764 9.34403 17.9773L9.45309 18L9.56316 17.9902C10.0744 17.9425 10.2749 17.738 10.6108 17.509C10.9467 17.2799 11.3185 16.9892 11.7005 16.671C12.4535 16.0439 13.2327 15.321 13.7458 14.8055C13.7524 14.7988 13.7632 14.7893 13.7698 14.7827C13.7708 14.7817 13.7717 14.7804 13.7728 14.7795C14.8535 13.7804 15.9241 12.6286 16.8317 11.2739C16.8319 11.2735 16.8324 11.2732 16.8326 11.2728C16.8343 11.2703 16.8359 11.2677 16.8376 11.2652C18.277 9.16583 18.9752 6.33669 18.1424 3.54935L18.1274 3.49948L18.1074 3.45286C17.1725 1.26313 15.1615 -0.0238608 12.9873 0.000335199ZM13.0133 1.71522C14.5798 1.67618 15.9529 2.58488 16.6345 4.13901C17.2644 6.31482 16.7199 8.53168 15.5469 10.2386L15.5439 10.243L15.5409 10.2473C14.7237 11.469 13.734 12.5384 12.7081 13.4841L12.6951 13.4971L12.6821 13.5101C12.2202 13.976 11.4382 14.7016 10.7239 15.2966C10.3667 15.594 10.0243 15.8599 9.75831 16.0413C9.65829 16.1095 9.56319 16.156 9.48513 16.1919C9.4031 16.1434 9.29898 16.075 9.19097 15.9871C8.97347 15.81 8.74187 15.5839 8.48952 15.3822C8.48559 15.3789 8.48145 15.3757 8.47752 15.3724C6.23811 13.5272 3.87927 11.2866 2.74499 9.02782C1.82412 6.8966 1.86431 4.34571 3.16524 2.84689C4.93413 1.14306 7.56209 1.51347 8.87274 3.26206L9.51114 4.113L10.1285 3.24472C10.4838 2.74547 10.9077 2.36381 11.4223 2.07401C11.9618 1.84572 12.4977 1.72805 13.0133 1.71522V1.71522Z"/>
</symbol><symbol viewBox="0 0 18 18" id="lk" xmlns="http://www.w3.org/2000/svg">
    <path fill-rule="evenodd" clip-rule="evenodd" d="M10.6211 5.31793C10.6211 4.3216 9.72983 3.53866 8.6917 3.72571L8.68836 3.72631L8.68836 3.72631C8.38148 3.78035 8.05181 3.98745 7.78729 4.33049C7.52299 4.67323 7.37884 5.08256 7.37884 5.4383V6.18886C7.37884 6.54245 7.52324 6.94964 7.78885 7.29261C8.05445 7.63557 8.38597 7.84491 8.69315 7.90171C9.73066 8.08778 10.6211 7.3051 10.6211 6.30923V5.31793ZM8.38933 2.0383C10.4944 1.66001 12.3354 3.27007 12.3354 5.31793V6.30923C12.3354 8.35762 10.4934 9.96798 8.38771 9.58857L8.38497 9.58807C7.57375 9.43918 6.89682 8.94055 6.43348 8.34226C5.96977 7.74349 5.66455 6.97528 5.66455 6.18886V5.4383C5.66455 4.65405 5.96648 3.88443 6.42973 3.28367C6.89244 2.68362 7.57114 2.18292 8.38933 2.0383Z"/>
    <path fill-rule="evenodd" clip-rule="evenodd" d="M9 1.71429C4.97621 1.71429 1.71429 4.97621 1.71429 9C1.71429 13.0238 4.97621 16.2857 9 16.2857C13.0238 16.2857 16.2857 13.0238 16.2857 9C16.2857 4.97621 13.0238 1.71429 9 1.71429ZM0 9C0 4.02944 4.02944 0 9 0C13.9706 0 18 4.02944 18 9C18 13.9706 13.9706 18 9 18C4.02944 18 0 13.9706 0 9Z"/>
    <path fill-rule="evenodd" clip-rule="evenodd" d="M8.99997 12.3354C6.82813 12.3354 4.99626 13.5833 4.23193 15.303C4.03967 15.7356 3.53313 15.9304 3.10055 15.7381C2.66796 15.5459 2.47314 15.0393 2.6654 14.6068C3.71375 12.248 6.1728 10.6211 8.99997 10.6211C11.8271 10.6211 14.2862 12.248 15.3345 14.6068C15.5268 15.0393 15.332 15.5459 14.8994 15.7381C14.4668 15.9304 13.9603 15.7356 13.768 15.303C13.0037 13.5833 11.1718 12.3354 8.99997 12.3354Z"/>
</symbol><symbol viewBox="0 0 26 26" id="loupe" xmlns="http://www.w3.org/2000/svg">
    <path d="M11.1188 22.2365C13.5858 22.236 15.9817 21.4102 17.9249 19.8905L24.0347 26L26 24.0349L19.8902 17.9254C21.4107 15.982 22.2371 13.5857 22.2377 11.1182C22.2377 4.98792 17.2495 0 11.1188 0C4.98819 0 0 4.98792 0 11.1182C0 17.2486 4.98819 22.2365 11.1188 22.2365ZM11.1188 2.77956C15.7179 2.77956 19.458 6.51946 19.458 11.1182C19.458 15.717 15.7179 19.4569 11.1188 19.4569C6.51981 19.4569 2.77971 15.717 2.77971 11.1182C2.77971 6.51946 6.51981 2.77956 11.1188 2.77956Z"/>
</symbol><symbol viewBox="0 0 25 18" id="mail" xmlns="http://www.w3.org/2000/svg">
    <g clip-path="url(#eclip0_3_268)">
        <path d="M5.31554 11.5659L1.27169 15.4545C1.11056 15.1566 1.00928 14.7625 1.00928 14.3395V1.5986L8.3383 8.65873M16.2299 9.06725L23.9999 1.57457V14.3395C23.9999 14.7528 23.9079 15.1325 23.7467 15.4305L18.0994 10.0318M1.30207 1.40107L1.27353 1.38232M8.3383 8.65873L10.3961 10.6436C10.5066 10.7494 10.6171 10.8407 10.7276 10.9176C11.8463 11.7827 13.1491 11.7827 14.2632 10.9128C14.3691 10.8359 14.4796 10.7398 14.5809 10.6436L16.6525 8.64912" stroke-width="1.5" stroke-miterlimit="10" stroke-linecap="round" stroke-linejoin="round"/>
        <path d="M18.0638 9.99707L23.747 15.4299C23.5537 15.7999 23.2544 16.0402 22.923 16.0402H2.08682C1.76456 16.0402 1.46993 15.8144 1.27197 15.4539L6.83227 10.1066" stroke-width="1.5" stroke-miterlimit="10" stroke-linecap="round" stroke-linejoin="round"/>
        <path d="M18.8563 1.04102H23.2114C23.483 1.04102 23.7454 1.20923 23.9342 1.47837C23.9572 1.50721 23.9802 1.54085 23.9986 1.57449L16.6512 8.64904L14.5795 10.6436C14.4783 10.7397 14.3678 10.8358 14.2619 10.9127C13.1478 11.7826 11.845 11.7826 10.7263 10.9175C10.6158 10.8406 10.5053 10.7493 10.3948 10.6436L8.33698 8.65866L1.00796 1.59852C1.02637 1.56968 1.04939 1.53604 1.07241 1.5024C1.26576 1.21404 1.52817 1.04102 1.8136 1.04102H5.7175M2.14644 16.0408C2.14644 16.0408 0.879514 16.1081 1.00934 13.8853" stroke-width="1.5" stroke-miterlimit="10" stroke-linecap="round" stroke-linejoin="round"/>
        <path d="M5.37354 1.04102H20.1052" stroke-width="1.35849"/>
    </g>
    <defs>
        <clipPath id="eclip0_3_268">
            <rect width="25" height="17" transform="translate(0 0.0410156)"/>
        </clipPath>
    </defs>
</symbol><symbol viewBox="0 0 18 18" id="next" xmlns="http://www.w3.org/2000/svg">
    <circle cx="9" cy="9" r="8.5"/>
    <path d="M8.2285 6.94287L10.2856 8.87144L8.2285 10.8" stroke-linecap="round"/>
</symbol><symbol viewBox="0 0 18 19" id="shop" xmlns="http://www.w3.org/2000/svg">
    <path d="M17.325 4.10225V1.22C17.325 0.82175 17.0033 0.5 16.605 0.5H1.39501C0.996763 0.5 0.675013 0.82175 0.675013 1.22V4.10225C0.299264 4.12475 1.39408e-05 4.4375 1.39408e-05 4.82V7.78325C-0.00142697 8.32785 0.108845 8.86696 0.324014 9.36725C0.420764 9.59675 0.540014 9.81275 0.675013 10.0175V17.78C0.675013 18.176 0.996763 18.5 1.39501 18.5H16.605C17.0033 18.5 17.325 18.1783 17.325 17.78V10.0175C17.4621 9.81223 17.5796 9.59452 17.676 9.36725C17.8897 8.8655 18 8.33225 18 7.78325V4.82C18 4.4375 17.7007 4.12475 17.325 4.10225ZM2.29501 2.12H15.705V4.1H2.29501V2.12ZM10.44 16.8823H7.56001V14.54H10.44V16.8823ZM15.705 16.8823H11.88V13.82C11.88 13.4218 11.5583 13.1 11.16 13.1H6.84001C6.44176 13.1 6.12001 13.4218 6.12001 13.82V16.8823H2.29501V11.4328C2.36026 11.4643 2.42776 11.4958 2.49751 11.5228C2.99926 11.7343 3.53251 11.84 4.08151 11.84C4.63051 11.84 5.16151 11.7343 5.66551 11.5228C5.97601 11.3923 6.26851 11.2258 6.53626 11.0255C6.54076 11.0233 6.54526 11.0233 6.54976 11.0255C6.81834 11.2266 7.11082 11.3936 7.42051 11.5228C7.92226 11.7343 8.45551 11.84 9.00451 11.84C9.55351 11.84 10.0845 11.7343 10.5885 11.5228C10.899 11.3923 11.1915 11.2258 11.4593 11.0255C11.4638 11.0233 11.4683 11.0233 11.4728 11.0255C11.7413 11.2266 12.0338 11.3936 12.3435 11.5228C12.8453 11.7343 13.3785 11.84 13.9275 11.84C14.4765 11.84 15.0075 11.7343 15.5115 11.5228C15.579 11.4935 15.6465 11.4643 15.714 11.4328V16.8823H15.705ZM16.38 7.78325C16.38 9.12875 15.2775 10.22 13.9208 10.22C13.0028 10.22 12.2018 9.72275 11.7788 8.98475C11.7135 8.87225 11.5965 8.8025 11.466 8.8025H11.4525C11.3243 8.8025 11.205 8.87225 11.1398 8.98475C10.9239 9.36121 10.6122 9.67381 10.2364 9.89077C9.86054 10.1077 9.43396 10.2213 9.00001 10.22C8.08426 10.22 7.28551 9.725 6.86251 8.98925C6.79501 8.8745 6.67351 8.8025 6.54076 8.8025C6.40801 8.8025 6.28426 8.8745 6.21901 8.98925C6.00188 9.36427 5.6898 9.67548 5.31416 9.89154C4.93853 10.1076 4.5126 10.2209 4.07926 10.22C2.72251 10.22 1.62001 9.12875 1.62001 7.78325V5.73125C1.62001 5.7245 1.62451 5.72 1.63126 5.72H16.3688C16.3755 5.72 16.38 5.7245 16.38 5.73125V7.78325V7.78325Z"/>
</symbol><symbol viewBox="0 0 24 25" id="telegram" xmlns="http://www.w3.org/2000/svg">
    <path d="M20.6651 3.75784L2.93509 10.5948C1.72509 11.0808 1.73209 11.7558 2.71309 12.0568L7.26509 13.4768L17.7971 6.83184C18.2951 6.52884 18.7501 6.69184 18.3761 7.02384L9.8431 14.7248H9.84109L9.8431 14.7258L9.5291 19.4178C9.9891 19.4178 10.1921 19.2068 10.4501 18.9578L12.6611 16.8078L17.2601 20.2048C18.1081 20.6718 18.7171 20.4318 18.9281 19.4198L21.9471 5.19184C22.2561 3.95284 21.4741 3.39184 20.6651 3.75784V3.75784Z"/>
</symbol><symbol viewBox="0 0 24 25" id="vk" xmlns="http://www.w3.org/2000/svg">
    <path d="M21.579 6.89584C21.719 6.43084 21.579 6.08984 20.917 6.08984H18.724C18.166 6.08984 17.911 6.38484 17.771 6.70884C17.771 6.70884 16.656 9.42784 15.076 11.1908C14.566 11.7038 14.333 11.8658 14.055 11.8658C13.916 11.8658 13.714 11.7038 13.714 11.2388V6.89584C13.714 6.33784 13.553 6.08984 13.088 6.08984H9.642C9.294 6.08984 9.084 6.34784 9.084 6.59384C9.084 7.12184 9.874 7.24384 9.955 8.73184V11.9598C9.955 12.6668 9.828 12.7958 9.548 12.7958C8.805 12.7958 6.997 10.0668 5.924 6.94284C5.715 6.33584 5.504 6.09084 4.944 6.09084H2.752C2.125 6.09084 2 6.38584 2 6.70984C2 7.29184 2.743 10.1718 5.461 13.9808C7.273 16.5818 9.824 17.9918 12.148 17.9918C13.541 17.9918 13.713 17.6788 13.713 17.1388V15.1728C13.713 14.5468 13.846 14.4208 14.287 14.4208C14.611 14.4208 15.169 14.5848 16.47 15.8378C17.956 17.3238 18.202 17.9908 19.037 17.9908H21.229C21.855 17.9908 22.168 17.6778 21.988 17.0598C21.791 16.4448 21.081 15.5498 20.139 14.4908C19.627 13.8868 18.862 13.2368 18.629 12.9118C18.304 12.4928 18.398 12.3078 18.629 11.9358C18.63 11.9368 21.301 8.17484 21.579 6.89584V6.89584Z"/>
</symbol><symbol viewBox="0 0 24 25" id="youtube" xmlns="http://www.w3.org/2000/svg">
    <path d="M22.0617 6.98086C21.9422 6.53564 21.7078 6.12962 21.382 5.80344C21.0563 5.47727 20.6505 5.24237 20.2055 5.12227C18.5672 4.68164 12 4.68164 12 4.68164C12 4.68164 5.43281 4.68164 3.79453 5.11992C3.34927 5.23964 2.94334 5.4744 2.61751 5.80064C2.29169 6.12688 2.05744 6.5331 1.93828 6.97852C1.5 8.61914 1.5 12.041 1.5 12.041C1.5 12.041 1.5 15.4629 1.93828 17.1012C2.17969 18.0059 2.89219 18.7184 3.79453 18.9598C5.43281 19.4004 12 19.4004 12 19.4004C12 19.4004 18.5672 19.4004 20.2055 18.9598C21.1102 18.7184 21.8203 18.0059 22.0617 17.1012C22.5 15.4629 22.5 12.041 22.5 12.041C22.5 12.041 22.5 8.61914 22.0617 6.98086ZM9.91406 15.1816V8.90039L15.3516 12.0176L9.91406 15.1816Z"/>
</symbol></svg>