<svg width="25" height="18" viewBox="0 0 25 18" fill="none" xmlns="http://www.w3.org/2000/svg">
<g clip-path="url(#clip0_3_268)">
<path d="M5.31554 11.5659L1.27169 15.4545C1.11056 15.1566 1.00928 14.7625 1.00928 14.3395V1.5986L8.3383 8.65873M16.2299 9.06725L23.9999 1.57457V14.3395C23.9999 14.7528 23.9079 15.1325 23.7467 15.4305L18.0994 10.0318M1.30207 1.40107L1.27353 1.38232M8.3383 8.65873L10.3961 10.6436C10.5066 10.7494 10.6171 10.8407 10.7276 10.9176C11.8463 11.7827 13.1491 11.7827 14.2632 10.9128C14.3691 10.8359 14.4796 10.7398 14.5809 10.6436L16.6525 8.64912" stroke="#8D8D8D" stroke-width="1.5" stroke-miterlimit="10" stroke-linecap="round" stroke-linejoin="round"/>
<path d="M18.0638 9.99707L23.747 15.4299C23.5537 15.7999 23.2544 16.0402 22.923 16.0402H2.08682C1.76456 16.0402 1.46993 15.8144 1.27197 15.4539L6.83227 10.1066" stroke="#8D8D8D" stroke-width="1.5" stroke-miterlimit="10" stroke-linecap="round" stroke-linejoin="round"/>
<path d="M18.8563 1.04102H23.2114C23.483 1.04102 23.7454 1.20923 23.9342 1.47837C23.9572 1.50721 23.9802 1.54085 23.9986 1.57449L16.6512 8.64904L14.5795 10.6436C14.4783 10.7397 14.3678 10.8358 14.2619 10.9127C13.1478 11.7826 11.845 11.7826 10.7263 10.9175C10.6158 10.8406 10.5053 10.7493 10.3948 10.6436L8.33698 8.65866L1.00796 1.59852C1.02637 1.56968 1.04939 1.53604 1.07241 1.5024C1.26576 1.21404 1.52817 1.04102 1.8136 1.04102H5.7175M2.14644 16.0408C2.14644 16.0408 0.879514 16.1081 1.00934 13.8853" stroke="#8D8D8D" stroke-width="1.5" stroke-miterlimit="10" stroke-linecap="round" stroke-linejoin="round"/>
<path d="M5.37354 1.04102H20.1052" stroke="#8D8D8D" stroke-width="1.35849"/>
</g>
<defs>
<clipPath id="clip0_3_268">
<rect width="25" height="17" fill="white" transform="translate(0 0.0410156)"/>
</clipPath>
</defs>
</svg>
