<svg width="24" height="25" viewBox="0 0 24 25" fill="none" xmlns="http://www.w3.org/2000/svg">
<path d="M21.579 6.89584C21.719 6.43084 21.579 6.08984 20.917 6.08984H18.724C18.166 6.08984 17.911 6.38484 17.771 6.70884C17.771 6.70884 16.656 9.42784 15.076 11.1908C14.566 11.7038 14.333 11.8658 14.055 11.8658C13.916 11.8658 13.714 11.7038 13.714 11.2388V6.89584C13.714 6.33784 13.553 6.08984 13.088 6.08984H9.642C9.294 6.08984 9.084 6.34784 9.084 6.59384C9.084 7.12184 9.874 7.24384 9.955 8.73184V11.9598C9.955 12.6668 9.828 12.7958 9.548 12.7958C8.805 12.7958 6.997 10.0668 5.924 6.94284C5.715 6.33584 5.504 6.09084 4.944 6.09084H2.752C2.125 6.09084 2 6.38584 2 6.70984C2 7.29184 2.743 10.1718 5.461 13.9808C7.273 16.5818 9.824 17.9918 12.148 17.9918C13.541 17.9918 13.713 17.6788 13.713 17.1388V15.1728C13.713 14.5468 13.846 14.4208 14.287 14.4208C14.611 14.4208 15.169 14.5848 16.47 15.8378C17.956 17.3238 18.202 17.9908 19.037 17.9908H21.229C21.855 17.9908 22.168 17.6778 21.988 17.0598C21.791 16.4448 21.081 15.5498 20.139 14.4908C19.627 13.8868 18.862 13.2368 18.629 12.9118C18.304 12.4928 18.398 12.3078 18.629 11.9358C18.63 11.9368 21.301 8.17484 21.579 6.89584V6.89584Z" fill="#8D8D8D"/>
</svg>
