<svg width="18" height="18" viewBox="0 0 18 18" fill="none" xmlns="http://www.w3.org/2000/svg">
<path fill-rule="evenodd" clip-rule="evenodd" d="M10.6211 5.31793C10.6211 4.3216 9.72983 3.53866 8.6917 3.72571L8.68836 3.72631L8.68836 3.72631C8.38148 3.78035 8.05181 3.98745 7.78729 4.33049C7.52299 4.67323 7.37884 5.08256 7.37884 5.4383V6.18886C7.37884 6.54245 7.52324 6.94964 7.78885 7.29261C8.05445 7.63557 8.38597 7.84491 8.69315 7.90171C9.73066 8.08778 10.6211 7.3051 10.6211 6.30923V5.31793ZM8.38933 2.0383C10.4944 1.66001 12.3354 3.27007 12.3354 5.31793V6.30923C12.3354 8.35762 10.4934 9.96798 8.38771 9.58857L8.38497 9.58807C7.57375 9.43918 6.89682 8.94055 6.43348 8.34226C5.96977 7.74349 5.66455 6.97528 5.66455 6.18886V5.4383C5.66455 4.65405 5.96648 3.88443 6.42973 3.28367C6.89244 2.68362 7.57114 2.18292 8.38933 2.0383Z" fill="#8D8D8D"/>
<path fill-rule="evenodd" clip-rule="evenodd" d="M9 1.71429C4.97621 1.71429 1.71429 4.97621 1.71429 9C1.71429 13.0238 4.97621 16.2857 9 16.2857C13.0238 16.2857 16.2857 13.0238 16.2857 9C16.2857 4.97621 13.0238 1.71429 9 1.71429ZM0 9C0 4.02944 4.02944 0 9 0C13.9706 0 18 4.02944 18 9C18 13.9706 13.9706 18 9 18C4.02944 18 0 13.9706 0 9Z" fill="#8D8D8D"/>
<path fill-rule="evenodd" clip-rule="evenodd" d="M8.99997 12.3354C6.82813 12.3354 4.99626 13.5833 4.23193 15.303C4.03967 15.7356 3.53313 15.9304 3.10055 15.7381C2.66796 15.5459 2.47314 15.0393 2.6654 14.6068C3.71375 12.248 6.1728 10.6211 8.99997 10.6211C11.8271 10.6211 14.2862 12.248 15.3345 14.6068C15.5268 15.0393 15.332 15.5459 14.8994 15.7381C14.4668 15.9304 13.9603 15.7356 13.768 15.303C13.0037 13.5833 11.1718 12.3354 8.99997 12.3354Z" fill="#8D8D8D"/>
</svg>
