<?xml version="1.0" encoding="utf-8"?><svg viewBox="0 0 26 26" xmlns="http://www.w3.org/2000/svg" xmlns:xlink="http://www.w3.org/1999/xlink"><style>:root>svg{display:none}:root>svg:target{display:block}</style><svg fill="none" viewBox="0 0 18 18" id="buy" xmlns="http://www.w3.org/2000/svg">
    <path fill="#fff" d="M0 0h18v18H0z"/>
    <path d="M4 4.5V2.7c0-.521.168-1.031.483-1.469A2.937 2.937 0 0 1 5.775.235 3.304 3.304 0 0 1 7.462.032C8.034.112 8.568.34 9 .688a3.152 3.152 0 0 1 1.538-.656 3.304 3.304 0 0 1 1.687.203c.528.213.977.559 1.292.996.315.438.483.948.483 1.469v1.8h1.5c.398 0 .78.142 1.06.395.282.254.44.597.44.955v9.005c0 .834-.368 1.634-1.024 2.224-.655.59-1.544.921-2.471.921H5c-1.06 0-2.078-.38-2.828-1.054C1.422 16.27 1 15.355 1 14.4V5.85c0-.358.158-.701.44-.955A1.589 1.589 0 0 1 2.5 4.5H4Zm6.635 12.15a2.92 2.92 0 0 1-.625-1.795V5.85H2.5v8.55c0 .295.065.588.19.861.126.273.31.521.542.73.232.209.508.375.811.488.304.113.629.171.957.171h5.635ZM8.5 4.5V2.7c0-.358-.158-.701-.44-.955A1.589 1.589 0 0 0 7 1.35c-.398 0-.78.142-1.06.395-.282.254-.44.597-.44.955v1.8h3Zm1.5 0h2.5V2.7a1.26 1.26 0 0 0-.273-.776 1.492 1.492 0 0 0-.719-.494 1.658 1.658 0 0 0-.904-.032 1.526 1.526 0 0 0-.76.442c.101.27.156.56.156.86v1.8Zm1.51 10.354c0 .477.21.933.584 1.27.375.337.882.526 1.411.526.53 0 1.036-.19 1.41-.526a1.71 1.71 0 0 0 .585-1.27V5.85h-3.99v9.005Z" fill="#8D8D8D"/>
</svg><svg fill="none" viewBox="0 0 19 18" id="favor" xmlns="http://www.w3.org/2000/svg">
    <path d="M12.987 0a5.68 5.68 0 0 0-2.195.476l-.033.015-.033.019a5.508 5.508 0 0 0-1.255.95c-2.01-1.884-5.21-2.021-7.4.118l-.022.021-.02.023C.108 3.796.153 7.142 1.304 9.788l.01.02.01.022c1.356 2.72 3.888 5.032 6.196 6.932l.006.005.005.005c.148.118.404.362.698.602.295.24.628.502 1.115.603l.11.023.11-.01c.51-.047.71-.252 1.047-.481.336-.23.707-.52 1.09-.838a32.113 32.113 0 0 0 2.045-1.865l.024-.023.003-.003c1.08-1 2.151-2.151 3.059-3.506v-.001l.006-.008c1.439-2.1 2.137-4.928 1.304-7.716l-.015-.05-.02-.046c-.934-2.19-2.945-3.477-5.12-3.453Zm.026 1.715c1.567-.039 2.94.87 3.621 2.424.63 2.176.086 4.393-1.087 6.1l-.003.004-.003.004c-.817 1.222-1.807 2.291-2.833 3.237l-.013.013-.013.013a31.163 31.163 0 0 1-1.958 1.787c-.357.297-.7.563-.966.744-.1.069-.195.115-.273.15a2.431 2.431 0 0 1-.294-.204c-.218-.177-.45-.403-.701-.605-.004-.003-.009-.006-.012-.01-2.24-1.845-4.599-4.085-5.733-6.344-.92-2.131-.88-4.682.42-6.181a3.79 3.79 0 0 1 5.708.415l.638.851.618-.868c.355-.5.779-.881 1.293-1.171a4.36 4.36 0 0 1 1.591-.359Z" fill="#8D8D8D"/>
</svg><svg fill="none" viewBox="0 0 18 18" id="lk" xmlns="http://www.w3.org/2000/svg">
    <path fill-rule="evenodd" clip-rule="evenodd" d="M10.621 5.318a1.62 1.62 0 0 0-1.93-1.592h-.003c-.307.054-.636.261-.9.604-.265.343-.41.753-.41 1.108v.75c0 .354.145.762.41 1.105.266.343.598.552.905.609a1.62 1.62 0 0 0 1.928-1.593v-.991ZM8.39 2.038a3.335 3.335 0 0 1 3.946 3.28v.991a3.335 3.335 0 0 1-3.947 3.28h-.003c-.811-.15-1.488-.648-1.952-1.247-.463-.599-.768-1.367-.768-2.153v-.75c0-.785.301-1.555.765-2.155.462-.6 1.141-1.101 1.96-1.246Z" fill="#8D8D8D"/>
    <path fill-rule="evenodd" clip-rule="evenodd" d="M9 1.714a7.286 7.286 0 1 0 0 14.572A7.286 7.286 0 0 0 9 1.714ZM0 9a9 9 0 1 1 18 0A9 9 0 0 1 0 9Z" fill="#8D8D8D"/>
    <path fill-rule="evenodd" clip-rule="evenodd" d="M9 12.335c-2.172 0-4.004 1.248-4.768 2.968a.857.857 0 1 1-1.567-.696C3.714 12.248 6.173 10.62 9 10.62s5.286 1.627 6.335 3.986a.857.857 0 1 1-1.567.696c-.764-1.72-2.596-2.968-4.768-2.968Z" fill="#8D8D8D"/>
</svg><svg fill="none" viewBox="0 0 26 26" id="loupe" xmlns="http://www.w3.org/2000/svg">
    <path d="M11.119 22.236c2.467 0 4.863-.826 6.806-2.346l6.11 6.11L26 24.035l-6.11-6.11a11.051 11.051 0 0 0 2.348-6.807C22.238 4.988 17.25 0 11.118 0 4.989 0 0 4.988 0 11.118s4.988 11.118 11.119 11.118Zm0-19.456c4.599 0 8.339 3.74 8.339 8.338 0 4.599-3.74 8.339-8.34 8.339-4.598 0-8.338-3.74-8.338-8.339S6.52 2.78 11.119 2.78Z" fill="#E11C4B"/>
</svg><svg fill="none" viewBox="0 0 25 18" id="mail" xmlns="http://www.w3.org/2000/svg">
    <g clip-path="url(#ea)" stroke="#8D8D8D">
        <path d="m5.316 11.566-4.044 3.888a2.385 2.385 0 0 1-.263-1.115V1.6l7.33 7.06m7.89.408L24 1.575v12.764c0 .414-.091.793-.252 1.091l-5.648-5.398M1.302 1.402l-.028-.02M8.338 8.66l2.058 1.985c.11.105.221.197.332.274 1.118.865 2.421.865 3.535-.005.106-.077.217-.173.318-.27l2.072-1.994" stroke-width="1.5" stroke-miterlimit="10" stroke-linecap="round" stroke-linejoin="round"/>
        <path d="m18.064 9.997 5.683 5.433c-.193.37-.493.61-.824.61H2.087c-.322 0-.617-.226-.815-.586l5.56-5.347" stroke-width="1.5" stroke-miterlimit="10" stroke-linecap="round" stroke-linejoin="round"/>
        <path d="M18.856 1.041h4.355c.272 0 .534.168.723.437a.688.688 0 0 1 .065.096L16.65 8.65l-2.072 1.995a3.268 3.268 0 0 1-.317.269c-1.114.87-2.417.87-3.536.005a2.778 2.778 0 0 1-.331-.274L8.337 8.659l-7.329-7.06c.018-.03.041-.063.064-.097.194-.288.456-.461.742-.461h3.904m-3.572 15s-1.266.067-1.137-2.156" stroke-width="1.5" stroke-miterlimit="10" stroke-linecap="round" stroke-linejoin="round"/>
        <path d="M5.374 1.041h14.731" stroke-width="1.358"/>
    </g>
    <defs>
        <clipPath id="ea">
            <path fill="#fff" transform="translate(0 .041)" d="M0 0h25v17H0z"/>
        </clipPath>
    </defs>
</svg><svg fill="none" viewBox="0 0 18 18" id="next" xmlns="http://www.w3.org/2000/svg">
    <circle cx="9" cy="9" r="8.5" fill="#fff" stroke="#8D8D8D"/>
    <path d="m8.229 6.943 2.057 1.928L8.229 10.8" stroke="#8D8D8D" stroke-linecap="round"/>
</svg><svg fill="none" viewBox="0 0 18 19" id="shop" xmlns="http://www.w3.org/2000/svg">
    <path d="M17.325 4.102V1.22a.72.72 0 0 0-.72-.72H1.395a.72.72 0 0 0-.72.72v2.882A.72.72 0 0 0 0 4.82v2.963a3.982 3.982 0 0 0 .324 1.584c.097.23.216.446.351.65v7.763c0 .396.322.72.72.72h15.21a.72.72 0 0 0 .72-.72v-7.763A4.023 4.023 0 0 0 18 7.784V4.82a.72.72 0 0 0-.675-.718ZM2.295 2.12h13.41V4.1H2.295V2.12Zm8.145 14.762H7.56V14.54h2.88v2.342Zm5.265 0H11.88V13.82a.72.72 0 0 0-.72-.72H6.84a.72.72 0 0 0-.72.72v3.062H2.295v-5.45a4.056 4.056 0 0 0 1.786.407c.55.001 1.08-.105 1.585-.316.31-.13.603-.297.87-.498a.015.015 0 0 1 .014 0 4.056 4.056 0 0 0 2.455.815 4.114 4.114 0 0 0 2.455-.815.015.015 0 0 1 .013 0 4.056 4.056 0 0 0 2.455.815c.548 0 1.08-.106 1.583-.317.068-.03.136-.059.203-.09v5.45h-.009Zm.675-9.099c0 1.346-1.102 2.437-2.46 2.437a2.464 2.464 0 0 1-2.141-1.235.36.36 0 0 0-.313-.182h-.013a.363.363 0 0 0-.313.182A2.458 2.458 0 0 1 9 10.22a2.46 2.46 0 0 1-2.137-1.23.371.371 0 0 0-.644 0 2.467 2.467 0 0 1-2.14 1.23c-1.356 0-2.459-1.091-2.459-2.437V5.731c0-.006.005-.011.011-.011H16.37c.006 0 .011.005.011.011v2.052Z" fill="#8D8D8D"/>
</svg><svg fill="none" viewBox="0 0 24 25" id="telegram" xmlns="http://www.w3.org/2000/svg">
    <path d="m20.665 3.758-17.73 6.837c-1.21.486-1.203 1.16-.222 1.462l4.552 1.42 10.532-6.645c.498-.303.953-.14.58.192l-8.534 7.7h-.002l.002.002-.314 4.692c.46 0 .663-.211.921-.46l2.211-2.15 4.6 3.397c.847.467 1.456.227 1.667-.785l3.02-14.228c.308-1.24-.474-1.8-1.283-1.434Z" fill="#8D8D8D"/>
</svg><svg fill="none" viewBox="0 0 24 25" id="vk" xmlns="http://www.w3.org/2000/svg">
    <path d="M21.579 6.896c.14-.465 0-.806-.662-.806h-2.193c-.558 0-.813.295-.953.619 0 0-1.115 2.719-2.695 4.482-.51.513-.743.675-1.021.675-.139 0-.341-.162-.341-.627V6.896c0-.558-.161-.806-.626-.806H9.642c-.348 0-.558.258-.558.504 0 .528.79.65.871 2.138v3.228c0 .707-.127.836-.407.836-.743 0-2.551-2.73-3.624-5.853-.209-.607-.42-.852-.98-.852H2.752c-.627 0-.752.295-.752.619 0 .582.743 3.462 3.461 7.27 1.812 2.602 4.363 4.012 6.687 4.012 1.393 0 1.565-.313 1.565-.853v-1.966c0-.626.133-.752.574-.752.324 0 .882.164 2.183 1.417 1.486 1.486 1.732 2.153 2.567 2.153h2.192c.626 0 .939-.313.759-.931-.197-.615-.907-1.51-1.849-2.57-.512-.603-1.277-1.253-1.51-1.578-.325-.42-.231-.604 0-.976.001 0 2.672-3.761 2.95-5.04Z" fill="#8D8D8D"/>
</svg><svg fill="none" viewBox="0 0 24 25" id="youtube" xmlns="http://www.w3.org/2000/svg">
    <path d="M22.062 6.98a2.631 2.631 0 0 0-1.857-1.858c-1.638-.44-8.205-.44-8.205-.44s-6.567 0-8.205.438a2.628 2.628 0 0 0-1.857 1.859C1.5 8.619 1.5 12.04 1.5 12.04s0 3.422.438 5.06a2.632 2.632 0 0 0 1.857 1.859c1.638.44 8.205.44 8.205.44s6.567 0 8.206-.44a2.628 2.628 0 0 0 1.856-1.859c.438-1.638.438-5.06.438-5.06s0-3.422-.438-5.06ZM9.914 15.183V8.9l5.438 3.118-5.438 3.164Z" fill="#8D8D8D"/>
</svg></svg>